<svg xmlns="http://www.w3.org/2000/svg" width="29.187" height="29.187" viewBox="0 0 29.187 29.187">
  <g id="g3387" transform="translate(0.154 682.819)">
    <g id="g3389" transform="translate(0 -682.665)">
      <g id="Group_85624" data-name="Group 85624">
        <g id="g3397" transform="translate(6.583 6.583)">
          <path id="path3399" d="M-204.3-289.952h-2.345a.883.883,0,0,1-.86-.681l-.257-1.092a7.39,7.39,0,0,1-1.1-.456l-.955.591a.883.883,0,0,1-1.09-.126l-1.658-1.658a.884.884,0,0,1-.126-1.09l.591-.955a7.389,7.389,0,0,1-.456-1.1l-1.092-.257a.883.883,0,0,1-.681-.86v-2.345a.883.883,0,0,1,.681-.86l1.092-.257a7.388,7.388,0,0,1,.456-1.1l-.591-.955a.884.884,0,0,1,.126-1.09l1.658-1.658a.883.883,0,0,1,1.09-.126l.955.591a7.389,7.389,0,0,1,1.1-.456l.257-1.093a.883.883,0,0,1,.86-.681h2.345a.883.883,0,0,1,.86.681l.257,1.093a7.388,7.388,0,0,1,1.1.456l.955-.591a.884.884,0,0,1,1.09.126l1.658,1.658a.884.884,0,0,1,.126,1.09l-.591.955a7.388,7.388,0,0,1,.456,1.1l1.092.257a.883.883,0,0,1,.681.86v2.345a.883.883,0,0,1-.681.86l-1.092.257a7.388,7.388,0,0,1-.456,1.1l.591.955a.883.883,0,0,1-.126,1.09l-1.658,1.658a.883.883,0,0,1-1.09.126l-.955-.591a7.389,7.389,0,0,1-1.1.456l-.257,1.092A.884.884,0,0,1-204.3-289.952Zm-1.645-1.767H-205l.216-.917a.883.883,0,0,1,.652-.656,5.633,5.633,0,0,0,1.611-.668.884.884,0,0,1,.925,0l.8.5.669-.669-.5-.8a.883.883,0,0,1,0-.925,5.633,5.633,0,0,0,.668-1.611.884.884,0,0,1,.656-.652l.917-.216v-.946l-.917-.216a.884.884,0,0,1-.656-.652,5.633,5.633,0,0,0-.668-1.611.884.884,0,0,1,0-.925l.5-.8-.669-.669-.8.5a.884.884,0,0,1-.925,0,5.634,5.634,0,0,0-1.611-.668.883.883,0,0,1-.652-.656L-205-305.9h-.946l-.216.917a.883.883,0,0,1-.652.656,5.634,5.634,0,0,0-1.611.668.884.884,0,0,1-.925,0l-.8-.5-.669.669.5.8a.884.884,0,0,1,0,.925,5.633,5.633,0,0,0-.668,1.611.884.884,0,0,1-.656.652l-.917.216v.946l.917.216a.884.884,0,0,1,.656.652,5.633,5.633,0,0,0,.668,1.611.884.884,0,0,1,0,.925l-.5.8.669.669.8-.5a.883.883,0,0,1,.925,0,5.633,5.633,0,0,0,1.611.668.883.883,0,0,1,.652.656Zm.473-2.718a4.377,4.377,0,0,1-4.372-4.372,4.377,4.377,0,0,1,4.372-4.372,4.377,4.377,0,0,1,4.372,4.372A4.377,4.377,0,0,1-205.476-294.437Zm0-6.977a2.608,2.608,0,0,0-2.6,2.6,2.608,2.608,0,0,0,2.6,2.6,2.608,2.608,0,0,0,2.6-2.6A2.608,2.608,0,0,0-205.476-301.414Z" transform="translate(213.333 306.666)" fill="#fff"/>
        </g>
        <g id="g3401" transform="translate(20.022 0.871)">
          <path id="path3403" d="M0-83.028a1,1,0,0,1-.984-.827,1,1,0,0,1,.811-1.158L2-85.4l-.383-2.17a1,1,0,0,1,.811-1.158,1,1,0,0,1,1.158.811l.556,3.155a1,1,0,0,1-.166.747,1,1,0,0,1-.645.411l-3.155.556A1.006,1.006,0,0,1,0-83.028Z" transform="translate(0 87.74)" fill="#fff"/>
        </g>
        <g id="g3405" transform="translate(5.702 24.296)">
          <path id="path3407" d="M-74.033,4.712a1,1,0,0,1-.984-.827L-75.573.73a1,1,0,0,1,.166-.747,1,1,0,0,1,.646-.411l3.155-.556a1,1,0,0,1,1.158.811A1,1,0,0,1-71.259.985l-2.17.383.383,2.17A1,1,0,0,1-73.858,4.7,1.007,1.007,0,0,1-74.033,4.712Z" transform="translate(74.588)" fill="#fff"/>
        </g>
        <g id="g3409" transform="translate(0.846 0.846)">
          <path id="path3411" d="M-527.851-60.62a1,1,0,0,1-1-1,14.5,14.5,0,0,1,4.274-10.319,14.5,14.5,0,0,1,10.319-4.274,14.6,14.6,0,0,1,9.38,3.416,1,1,0,0,1,.123,1.409,1,1,0,0,1-1.409.123,12.6,12.6,0,0,0-8.093-2.947,12.511,12.511,0,0,0-8.9,3.688,12.511,12.511,0,0,0-3.689,8.9A1,1,0,0,1-527.851-60.62Z" transform="translate(527.851 75.213)" fill="#fff"/>
        </g>
        <g id="g3413" transform="translate(5.703 14.439)">
          <path id="path3415" d="M8.736-231.525a14.6,14.6,0,0,1-9.38-3.416,1,1,0,0,1-.123-1.409,1,1,0,0,1,1.409-.122,12.6,12.6,0,0,0,8.093,2.948,12.511,12.511,0,0,0,8.9-3.689,12.511,12.511,0,0,0,3.689-8.9,1,1,0,0,1,1-1,1,1,0,0,1,1,1A14.5,14.5,0,0,1,19.055-235.8,14.5,14.5,0,0,1,8.736-231.525Z" transform="translate(0 246.118)" fill="#fff"/>
        </g>
      </g>
    </g>
  </g>
</svg>
